<mxfile host="app.diagrams.net" modified="2024-01-09T08:51:31.681Z" agent="Mozilla/5.0 (Windows NT 10.0; Win64; x64) AppleWebKit/537.36 (KHTML, like Gecko) Chrome/120.0.0.0 Safari/537.36 Edg/120.0.0.0" etag="xW8WB7mE7SiiTgQegLfS" version="22.1.17" type="github">
  <diagram name="第 1 页" id="UFNNuf7H4DtbvUk9X_Pl">
    <mxGraphModel dx="1002" dy="577" grid="1" gridSize="10" guides="1" tooltips="1" connect="1" arrows="1" fold="1" page="1" pageScale="1" pageWidth="850" pageHeight="1100" math="0" shadow="0">
      <root>
        <mxCell id="0" />
        <mxCell id="1" parent="0" />
        <mxCell id="dTfk0oyw1fVU7MO5Swph-3" value="" style="edgeStyle=orthogonalEdgeStyle;rounded=0;orthogonalLoop=1;jettySize=auto;html=1;" edge="1" parent="1" source="dTfk0oyw1fVU7MO5Swph-1" target="dTfk0oyw1fVU7MO5Swph-2">
          <mxGeometry relative="1" as="geometry" />
        </mxCell>
        <mxCell id="dTfk0oyw1fVU7MO5Swph-5" value="" style="edgeStyle=orthogonalEdgeStyle;rounded=0;orthogonalLoop=1;jettySize=auto;html=1;" edge="1" parent="1" source="dTfk0oyw1fVU7MO5Swph-1" target="dTfk0oyw1fVU7MO5Swph-4">
          <mxGeometry relative="1" as="geometry" />
        </mxCell>
        <mxCell id="dTfk0oyw1fVU7MO5Swph-1" value="校内外卖送餐服务系统" style="rounded=0;whiteSpace=wrap;html=1;" vertex="1" parent="1">
          <mxGeometry x="410" y="180" width="120" height="60" as="geometry" />
        </mxCell>
        <mxCell id="dTfk0oyw1fVU7MO5Swph-2" value="用户管理" style="rounded=0;whiteSpace=wrap;html=1;" vertex="1" parent="1">
          <mxGeometry x="40" y="340" width="120" height="60" as="geometry" />
        </mxCell>
        <mxCell id="dTfk0oyw1fVU7MO5Swph-4" value="广告" style="whiteSpace=wrap;html=1;rounded=0;" vertex="1" parent="1">
          <mxGeometry x="410" y="330" width="120" height="60" as="geometry" />
        </mxCell>
      </root>
    </mxGraphModel>
  </diagram>
</mxfile>
